<svg xmlns="http://www.w3.org/2000/svg" fill="#1f8813" viewBox="0 0 64 64" width="512" height="512"><g id="outline"><path d="M61,22H52V13a1,1,0,0,1,1-1h6a1,1,0,0,0,1-1V7a1,1,0,0,0-1-1H53a7.008,7.008,0,0,0-7,7v9H43.237l-1.246-9.135A1,1,0,0,0,41,12H9a1,1,0,0,0-.761.351.989.989,0,0,0-.21.516l-6.02,44A1,1,0,0,0,3,58H57a1,1,0,0,0,1-.934L59.935,28H61a1,1,0,0,0,1-1V23A1,1,0,0,0,61,22ZM48,13a5.006,5.006,0,0,1,5-5h5v2H53a3,3,0,0,0-3,3v9H48Zm-7.873,1,.546,4H10.808l-.636-4ZM10,56V46H8V56H4.146l4.93-36.156L14.828,56Zm6.854,0L11.126,20H40.945l.273,2H35a1,1,0,0,0-1,1v4a1,1,0,0,0,1,1h1.065l1.866,28Zm39.21,0H39.936l-.4-6H56.464Zm.534-8H39.4l-.933-14H57.531Zm1.066-16H38.336l-.267-4H57.931ZM60,26H36V24H60Z"/><path d="M48,46a5,5,0,1,0-5-5A5.006,5.006,0,0,0,48,46Zm0-8a3,3,0,1,1-3,3A3,3,0,0,1,48,38Z"/><path d="M18.994,43.89l-1.988.22,1,9A1,1,0,0,0,19,54h5V52H19.9Z"/><rect x="26" y="52" width="2" height="2"/></g></svg>
